<svg width="103" height="54" viewBox="0 0 103 54" fill="none" xmlns="http://www.w3.org/2000/svg">
<g filter="url(#filter0_d_950_31)">
<path d="M76.05 26.9834C76.6316 28.3365 78.1999 28.9619 79.553 28.3804C80.9061 27.7988 81.5315 26.2305 80.95 24.8774C80.3684 23.5243 78.8001 22.8989 77.447 23.4805C76.0939 24.062 75.4685 25.6303 76.05 26.9834ZM55.8696 36.6871C43.0849 42.182 31.0389 46.0213 21.9043 47.7913C17.3329 48.677 13.5177 49.0391 10.714 48.8431C9.31142 48.7451 8.1898 48.5091 7.36103 48.148C6.53529 47.7883 6.03719 47.3221 5.80303 46.7773L4.88429 47.1721C5.24986 48.0227 5.98621 48.6399 6.96163 49.0648C7.93402 49.4884 9.18028 49.7384 10.6443 49.8407C13.5738 50.0454 17.4868 49.6658 22.0945 48.773C31.3181 46.9858 43.4343 43.1203 56.2644 37.6058L55.8696 36.6871ZM5.80303 46.7773C5.56886 46.2325 5.57334 45.5502 5.88055 44.7035C6.18889 43.8537 6.78949 42.8775 7.68355 41.7924C9.47073 39.6232 12.3588 37.1042 16.1472 34.3968C23.7174 28.9869 34.7925 22.8886 47.5771 17.3937L47.1822 16.475C34.3521 21.9894 23.2097 28.1206 15.5658 33.5832C11.7472 36.3121 8.77913 38.89 6.91176 41.1565C5.97855 42.2892 5.30229 43.3654 4.94052 44.3624C4.57761 45.3626 4.51872 46.3216 4.88429 47.1721L5.80303 46.7773ZM47.5771 17.3937C60.3618 11.8988 72.4078 8.05943 81.5424 6.2895C86.1138 5.40374 89.929 5.04171 92.7327 5.23765C94.1353 5.33568 95.2569 5.57167 96.0856 5.93273C96.9114 6.29246 97.4095 6.7587 97.6436 7.30351L98.5624 6.90863C98.1968 6.05809 97.4605 5.44089 96.485 5.01595C95.5127 4.59233 94.2664 4.3424 92.8024 4.24009C89.8729 4.03535 85.9599 4.41495 81.3522 5.30776C72.1285 7.09495 60.0124 10.9605 47.1822 16.475L47.5771 17.3937ZM78.2472 25.499C71.8507 29.2469 64.2239 33.0963 55.8696 36.6871L56.2644 37.6058C64.6525 34.0006 72.3167 30.1328 78.7528 26.3618L78.2472 25.499ZM97.6436 7.30351C97.8837 7.86209 97.873 8.56563 97.5421 9.44222C97.2102 10.3214 96.5707 11.332 95.6244 12.4548C93.733 14.699 90.6895 17.3054 86.7125 20.0998L87.2875 20.918C91.2944 18.1025 94.4174 15.4386 96.3891 13.0993C97.3743 11.9303 98.0905 10.821 98.4776 9.79537C98.8658 8.76716 98.9374 7.78108 98.5624 6.90863L97.6436 7.30351Z" fill="url(#paint0_linear_950_31)"/>
</g>
<mask id="path-2-outside-1_950_31" maskUnits="userSpaceOnUse" x="22" y="5" width="64" height="46" fill="black">
<rect fill="white" x="22" y="5" width="64" height="46"/>
<path fill-rule="evenodd" clip-rule="evenodd" d="M66.3507 11.5145C66.0319 12.8611 65.8725 14.5282 65.8725 16.516C65.8725 18.5038 66.0319 20.171 66.3507 21.5176C66.6695 22.8427 67.1902 23.9114 67.9128 24.7237C68.6566 25.5359 69.6449 26.1237 70.8775 26.487C72.1102 26.829 73.6298 27 75.4362 27C77.2427 27 78.7623 26.829 79.995 26.487C81.2276 26.1237 82.2053 25.5359 82.9278 24.7237C83.6717 23.9114 84.203 22.8427 84.5218 21.5176C84.8406 20.171 85 18.5038 85 16.516C85 14.5282 84.8406 12.8611 84.5218 11.5145C84.203 10.1679 83.6717 9.08855 82.9278 8.27634C82.2053 7.46412 81.2276 6.88702 79.995 6.54504C78.7623 6.18168 77.2427 6 75.4362 6C73.6298 6 72.1102 6.18168 70.8775 6.54504C69.6449 6.88702 68.6566 7.46412 67.9128 8.27634C67.1902 9.08855 66.6695 10.1679 66.3507 11.5145ZM75.6275 21.5176H72.7265V13.1817C72.7265 12.5405 72.9072 12.1023 73.2685 11.8672C73.6298 11.6107 74.278 11.4824 75.2131 11.4824H78.146V19.8183C78.146 20.4595 77.9653 20.9084 77.604 21.1649C77.2427 21.4 76.5839 21.5176 75.6275 21.5176ZM29.3758 21.6779V26.5191H23V6.48092H32.0856C33.892 6.48092 35.3585 6.73741 36.4849 7.25038C37.6113 7.74199 38.4295 8.53283 38.9396 9.6229C39.4709 10.713 39.7366 12.1344 39.7366 13.887C39.7366 16.5374 39.1521 18.5038 37.9832 19.7863C36.8143 21.0473 35.0078 21.6779 32.5638 21.6779H29.3758ZM29.3758 17.029H31.7986C32.2662 17.029 32.585 16.9328 32.755 16.7405C32.9463 16.5481 33.0419 16.1954 33.0419 15.6824V13.1176C33.0419 12.6046 32.9463 12.2519 32.755 12.0595C32.585 11.8672 32.2662 11.771 31.7986 11.771H29.3758V17.029ZM50.5705 20.716V26.5191H44.1947V6.48092H53.4396C55.2461 6.48092 56.7126 6.73741 57.8389 7.25038C58.9653 7.74199 59.7836 8.53283 60.2936 9.6229C60.825 10.713 61.0906 12.1344 61.0906 13.887C61.0906 16.2168 60.5062 17.9374 59.3373 19.0489C59.1252 19.2542 58.8907 19.4406 58.6336 19.608L61.8876 26.5191H54.9698L52.256 20.716H50.5705ZM50.5705 16.0672H53.1527C53.6203 16.0672 53.9391 15.971 54.1091 15.7786C54.3004 15.5863 54.396 15.2336 54.396 14.7206V13.1176C54.396 12.6046 54.3004 12.2519 54.1091 12.0595C53.9391 11.8672 53.6203 11.771 53.1527 11.771H50.5705V16.0672ZM23 29H29.2777L30.9413 43.5488H31.2238L33.3896 29H35.5868H38.0037H40.2009L42.3667 43.5488H42.6492L44.3128 29H50.5905L47.9853 50H38.6315L36.7953 37.3351L34.959 50H25.6053L23 29ZM58.8994 41.936V44.456H66.2757V50H52.6217V29H66.4327L65.648 34.544H58.8994V37.064H65.1771V41.936H58.8994ZM77.5295 29H68.6152V50H78.6281C80.6788 50 82.2483 49.496 83.3364 48.488C84.4455 47.4576 85 45.9904 85 44.0864C85 42.9888 84.6966 42.0032 84.0897 41.1296C83.4829 40.2336 82.7296 39.6736 81.8298 39.4496V39.248C82.4994 38.8448 83.033 38.2064 83.4306 37.3328C83.8282 36.4592 84.027 35.5296 84.027 34.544C84.027 32.5952 83.5143 31.184 82.4889 30.3104C81.4845 29.4368 79.8313 29 77.5295 29ZM74.8929 45.128H77.1529C77.676 45.128 78.0317 45.0048 78.2201 44.7584C78.4293 44.4896 78.534 44.0416 78.534 43.4144C78.534 42.7648 78.4398 42.3168 78.2515 42.0704C78.0631 41.824 77.7074 41.7008 77.1842 41.7008H74.8929V45.128ZM74.8929 36.9968H76.4309C76.9541 36.9968 77.2993 36.896 77.4667 36.6944C77.6551 36.4704 77.7492 36.0448 77.7492 35.4176C77.7492 34.7904 77.6655 34.376 77.4981 34.1744C77.3307 33.9728 76.975 33.872 76.4309 33.872H74.8929V36.9968Z"/>
</mask>
<path fill-rule="evenodd" clip-rule="evenodd" d="M66.3507 11.5145C66.0319 12.8611 65.8725 14.5282 65.8725 16.516C65.8725 18.5038 66.0319 20.171 66.3507 21.5176C66.6695 22.8427 67.1902 23.9114 67.9128 24.7237C68.6566 25.5359 69.6449 26.1237 70.8775 26.487C72.1102 26.829 73.6298 27 75.4362 27C77.2427 27 78.7623 26.829 79.995 26.487C81.2276 26.1237 82.2053 25.5359 82.9278 24.7237C83.6717 23.9114 84.203 22.8427 84.5218 21.5176C84.8406 20.171 85 18.5038 85 16.516C85 14.5282 84.8406 12.8611 84.5218 11.5145C84.203 10.1679 83.6717 9.08855 82.9278 8.27634C82.2053 7.46412 81.2276 6.88702 79.995 6.54504C78.7623 6.18168 77.2427 6 75.4362 6C73.6298 6 72.1102 6.18168 70.8775 6.54504C69.6449 6.88702 68.6566 7.46412 67.9128 8.27634C67.1902 9.08855 66.6695 10.1679 66.3507 11.5145ZM75.6275 21.5176H72.7265V13.1817C72.7265 12.5405 72.9072 12.1023 73.2685 11.8672C73.6298 11.6107 74.278 11.4824 75.2131 11.4824H78.146V19.8183C78.146 20.4595 77.9653 20.9084 77.604 21.1649C77.2427 21.4 76.5839 21.5176 75.6275 21.5176ZM29.3758 21.6779V26.5191H23V6.48092H32.0856C33.892 6.48092 35.3585 6.73741 36.4849 7.25038C37.6113 7.74199 38.4295 8.53283 38.9396 9.6229C39.4709 10.713 39.7366 12.1344 39.7366 13.887C39.7366 16.5374 39.1521 18.5038 37.9832 19.7863C36.8143 21.0473 35.0078 21.6779 32.5638 21.6779H29.3758ZM29.3758 17.029H31.7986C32.2662 17.029 32.585 16.9328 32.755 16.7405C32.9463 16.5481 33.0419 16.1954 33.0419 15.6824V13.1176C33.0419 12.6046 32.9463 12.2519 32.755 12.0595C32.585 11.8672 32.2662 11.771 31.7986 11.771H29.3758V17.029ZM50.5705 20.716V26.5191H44.1947V6.48092H53.4396C55.2461 6.48092 56.7126 6.73741 57.8389 7.25038C58.9653 7.74199 59.7836 8.53283 60.2936 9.6229C60.825 10.713 61.0906 12.1344 61.0906 13.887C61.0906 16.2168 60.5062 17.9374 59.3373 19.0489C59.1252 19.2542 58.8907 19.4406 58.6336 19.608L61.8876 26.5191H54.9698L52.256 20.716H50.5705ZM50.5705 16.0672H53.1527C53.6203 16.0672 53.9391 15.971 54.1091 15.7786C54.3004 15.5863 54.396 15.2336 54.396 14.7206V13.1176C54.396 12.6046 54.3004 12.2519 54.1091 12.0595C53.9391 11.8672 53.6203 11.771 53.1527 11.771H50.5705V16.0672ZM23 29H29.2777L30.9413 43.5488H31.2238L33.3896 29H35.5868H38.0037H40.2009L42.3667 43.5488H42.6492L44.3128 29H50.5905L47.9853 50H38.6315L36.7953 37.3351L34.959 50H25.6053L23 29ZM58.8994 41.936V44.456H66.2757V50H52.6217V29H66.4327L65.648 34.544H58.8994V37.064H65.1771V41.936H58.8994ZM77.5295 29H68.6152V50H78.6281C80.6788 50 82.2483 49.496 83.3364 48.488C84.4455 47.4576 85 45.9904 85 44.0864C85 42.9888 84.6966 42.0032 84.0897 41.1296C83.4829 40.2336 82.7296 39.6736 81.8298 39.4496V39.248C82.4994 38.8448 83.033 38.2064 83.4306 37.3328C83.8282 36.4592 84.027 35.5296 84.027 34.544C84.027 32.5952 83.5143 31.184 82.4889 30.3104C81.4845 29.4368 79.8313 29 77.5295 29ZM74.8929 45.128H77.1529C77.676 45.128 78.0317 45.0048 78.2201 44.7584C78.4293 44.4896 78.534 44.0416 78.534 43.4144C78.534 42.7648 78.4398 42.3168 78.2515 42.0704C78.0631 41.824 77.7074 41.7008 77.1842 41.7008H74.8929V45.128ZM74.8929 36.9968H76.4309C76.9541 36.9968 77.2993 36.896 77.4667 36.6944C77.6551 36.4704 77.7492 36.0448 77.7492 35.4176C77.7492 34.7904 77.6655 34.376 77.4981 34.1744C77.3307 33.9728 76.975 33.872 76.4309 33.872H74.8929V36.9968Z" fill="url(#paint1_linear_950_31)"/>
<path d="M66.3507 11.5145L66.1561 11.4684L66.1561 11.4684L66.3507 11.5145ZM66.3507 21.5176L66.1561 21.5636L66.1562 21.5643L66.3507 21.5176ZM67.9128 24.7237L67.7633 24.8566L67.7653 24.8587L67.9128 24.7237ZM70.8775 26.487L70.821 26.6789L70.8241 26.6797L70.8775 26.487ZM79.995 26.487L80.0484 26.6798L80.0515 26.6789L79.995 26.487ZM82.9278 24.7237L82.7803 24.5886L82.7784 24.5907L82.9278 24.7237ZM84.5218 21.5176L84.7163 21.5643L84.7164 21.5636L84.5218 21.5176ZM84.5218 11.5145L84.3272 11.5606L84.3272 11.5606L84.5218 11.5145ZM82.9278 8.27634L82.7784 8.40929L82.7804 8.41141L82.9278 8.27634ZM79.995 6.54504L79.9384 6.7369L79.9415 6.73776L79.995 6.54504ZM70.8775 6.54504L70.931 6.73778L70.9341 6.73688L70.8775 6.54504ZM67.9128 8.27634L67.7653 8.14125L67.7633 8.1434L67.9128 8.27634ZM72.7265 21.5176H72.5265V21.7176H72.7265V21.5176ZM73.2685 11.8672L73.3776 12.0349L73.3842 12.0303L73.2685 11.8672ZM78.146 11.4824H78.346V11.2824H78.146V11.4824ZM77.604 21.1649L77.7132 21.3327L77.7198 21.328L77.604 21.1649ZM29.3758 26.5191V26.7191H29.5758V26.5191H29.3758ZM29.3758 21.6779V21.4779H29.1758V21.6779H29.3758ZM23 26.5191H22.8V26.7191H23V26.5191ZM23 6.48092V6.28092H22.8V6.48092H23ZM36.4849 7.25038L36.402 7.43242L36.4049 7.43369L36.4849 7.25038ZM38.9396 9.6229L38.7584 9.70768L38.7598 9.71053L38.9396 9.6229ZM37.9832 19.7863L38.1299 19.9222L38.131 19.921L37.9832 19.7863ZM29.3758 17.029H29.1758V17.229H29.3758V17.029ZM32.755 16.7405L32.613 16.5992L32.6052 16.608L32.755 16.7405ZM32.755 12.0595L32.6049 12.1922L32.6132 12.2006L32.755 12.0595ZM29.3758 11.771V11.571H29.1758V11.771H29.3758ZM50.5705 26.5191V26.7191H50.7705V26.5191H50.5705ZM50.5705 20.716V20.516H50.3705V20.716H50.5705ZM44.1947 26.5191H43.9947V26.7191H44.1947V26.5191ZM44.1947 6.48092V6.28092H43.9947V6.48092H44.1947ZM57.8389 7.25038L57.756 7.43242L57.7589 7.43369L57.8389 7.25038ZM60.2936 9.6229L60.1125 9.70768L60.1139 9.71053L60.2936 9.6229ZM59.3373 19.0489L59.1994 18.9039L59.1981 18.9052L59.3373 19.0489ZM58.6336 19.608L58.5245 19.4404L58.3785 19.5356L58.4527 19.6932L58.6336 19.608ZM61.8876 26.5191V26.7191H62.2028L62.0685 26.4339L61.8876 26.5191ZM54.9698 26.5191L54.7887 26.6038L54.8426 26.7191H54.9698V26.5191ZM52.256 20.716L52.4372 20.6313L52.3833 20.516H52.256V20.716ZM50.5705 16.0672H50.3705V16.2672H50.5705V16.0672ZM54.1091 15.7786L53.967 15.6374L53.9592 15.6462L54.1091 15.7786ZM54.1091 12.0595L53.959 12.1922L53.9673 12.2006L54.1091 12.0595ZM50.5705 11.771V11.571H50.3705V11.771H50.5705ZM29.2777 29L29.4764 28.9773L29.4561 28.8H29.2777V29ZM23 29V28.8H22.7737L22.8015 29.0246L23 29ZM30.9413 43.5488L30.7426 43.5715L30.7629 43.7488H30.9413V43.5488ZM31.2238 43.5488V43.7488H31.3962L31.4216 43.5782L31.2238 43.5488ZM33.3896 29V28.8H33.2172L33.1918 28.9706L33.3896 29ZM40.2009 29L40.3987 28.9706L40.3734 28.8H40.2009V29ZM42.3667 43.5488L42.1689 43.5782L42.1943 43.7488H42.3667V43.5488ZM42.6492 43.5488V43.7488H42.8277L42.8479 43.5715L42.6492 43.5488ZM44.3128 29V28.8H44.1344L44.1141 28.9773L44.3128 29ZM50.5905 29L50.789 29.0246L50.8169 28.8H50.5905V29ZM47.9853 50V50.2H48.162L48.1838 50.0246L47.9853 50ZM38.6315 50L38.4336 50.0287L38.4584 50.2H38.6315V50ZM36.7953 37.3351L36.9932 37.3064L36.5973 37.3064L36.7953 37.3351ZM34.959 50V50.2H35.1321L35.157 50.0287L34.959 50ZM25.6053 50L25.4068 50.0246L25.4285 50.2H25.6053V50ZM58.8994 44.456H58.6994V44.656H58.8994V44.456ZM58.8994 41.936V41.736H58.6994V41.936H58.8994ZM66.2757 44.456H66.4757V44.256H66.2757V44.456ZM66.2757 50V50.2H66.4757V50H66.2757ZM52.6217 50H52.4217V50.2H52.6217V50ZM52.6217 29V28.8H52.4217V29H52.6217ZM66.4327 29L66.6307 29.028L66.663 28.8H66.4327V29ZM65.648 34.544V34.744H65.8217L65.846 34.572L65.648 34.544ZM58.8994 34.544V34.344H58.6994V34.544H58.8994ZM58.8994 37.064H58.6994V37.264H58.8994V37.064ZM65.1771 37.064H65.3771V36.864H65.1771V37.064ZM65.1771 41.936V42.136H65.3771V41.936H65.1771ZM68.6152 29V28.8H68.4152V29H68.6152ZM68.6152 50H68.4152V50.2H68.6152V50ZM83.3364 48.488L83.4723 48.6347L83.4725 48.6345L83.3364 48.488ZM84.0897 41.1296L83.9241 41.2418L83.9255 41.2437L84.0897 41.1296ZM81.8298 39.4496H81.6298V39.6059L81.7814 39.6437L81.8298 39.4496ZM81.8298 39.248L81.7266 39.0767L81.6298 39.135V39.248H81.8298ZM83.4306 37.3328L83.6126 37.4156L83.6126 37.4156L83.4306 37.3328ZM82.4889 30.3104L82.3577 30.4613L82.3592 30.4626L82.4889 30.3104ZM74.8929 45.128H74.6929V45.328H74.8929V45.128ZM78.2201 44.7584L78.0622 44.6355L78.0612 44.6369L78.2201 44.7584ZM78.2515 42.0704L78.0926 42.1919L78.0926 42.1919L78.2515 42.0704ZM74.8929 41.7008V41.5008H74.6929V41.7008H74.8929ZM74.8929 36.9968H74.6929V37.1968H74.8929V36.9968ZM77.4667 36.6944L77.3137 36.5657L77.3129 36.5666L77.4667 36.6944ZM77.4981 34.1744L77.3443 34.3022L77.3443 34.3022L77.4981 34.1744ZM74.8929 33.872V33.672H74.6929V33.872H74.8929ZM66.0725 16.516C66.0725 14.5376 66.2313 12.8871 66.5453 11.5606L66.1561 11.4684C65.8325 12.8351 65.6725 14.5188 65.6725 16.516H66.0725ZM66.5453 21.4715C66.2313 20.145 66.0725 18.4944 66.0725 16.516H65.6725C65.6725 18.5132 65.8325 20.197 66.1561 21.5636L66.5453 21.4715ZM68.0622 24.5907C67.3663 23.8086 66.8582 22.7719 66.5451 21.4708L66.1562 21.5643C66.4808 22.9136 67.014 24.0143 67.7633 24.8566L68.0622 24.5907ZM70.9341 26.2952C69.7304 25.9404 68.7757 25.3698 68.0603 24.5886L67.7653 24.8587C68.5375 25.702 69.5593 26.307 70.821 26.6789L70.9341 26.2952ZM75.4362 26.8C73.641 26.8 72.1407 26.6299 70.931 26.2943L70.8241 26.6797C72.0796 27.0281 73.6185 27.2 75.4362 27.2V26.8ZM79.9415 26.2943C78.7318 26.6299 77.2315 26.8 75.4362 26.8V27.2C77.254 27.2 78.7928 27.0281 80.0484 26.6797L79.9415 26.2943ZM82.7784 24.5907C82.0849 25.3703 81.1418 25.9404 79.9384 26.2952L80.0515 26.6789C81.3134 26.3069 82.3256 25.7015 83.0773 24.8566L82.7784 24.5907ZM84.3274 21.4708C84.0146 22.7708 83.4965 23.8066 82.7804 24.5886L83.0753 24.8587C83.8469 24.0163 84.3914 22.9147 84.7163 21.5643L84.3274 21.4708ZM84.8 16.516C84.8 18.4944 84.6412 20.145 84.3272 21.4715L84.7164 21.5636C85.04 20.197 85.2 18.5132 85.2 16.516H84.8ZM84.3272 11.5606C84.6412 12.8871 84.8 14.5376 84.8 16.516H85.2C85.2 14.5188 85.04 12.8351 84.7164 11.4684L84.3272 11.5606ZM82.7804 8.41141C83.496 9.1928 84.0143 10.2388 84.3272 11.5606L84.7164 11.4684C84.3918 10.097 83.8474 8.9843 83.0753 8.14126L82.7804 8.41141ZM79.9415 6.73776C81.1438 7.07131 82.0856 7.63057 82.7784 8.40927L83.0773 8.1434C82.3249 7.29768 81.3115 6.70274 80.0484 6.35232L79.9415 6.73776ZM75.4362 6.2C77.2307 6.2 78.7299 6.38063 79.9384 6.73688L80.0515 6.3532C78.7947 5.98273 77.2548 5.8 75.4362 5.8V6.2ZM70.9341 6.73688C72.1426 6.38063 73.6418 6.2 75.4362 6.2V5.8C73.6177 5.8 72.0778 5.98273 70.821 6.3532L70.9341 6.73688ZM68.0603 8.41141C68.7749 7.63107 69.7285 7.07137 70.931 6.73776L70.8241 6.35232C69.5612 6.70268 68.5383 7.29718 67.7653 8.14126L68.0603 8.41141ZM66.5453 11.5606C66.8585 10.2377 67.3668 9.19087 68.0622 8.40927L67.7633 8.1434C67.0135 8.98623 66.4805 10.0982 66.1561 11.4684L66.5453 11.5606ZM72.7265 21.7176H75.6275V21.3176H72.7265V21.7176ZM72.5265 13.1817V21.5176H72.9265V13.1817H72.5265ZM73.1594 11.6995C72.7171 11.9873 72.5265 12.508 72.5265 13.1817H72.9265C72.9265 12.5729 73.0972 12.2172 73.3775 12.0348L73.1594 11.6995ZM75.2131 11.2824C74.2738 11.2824 73.569 11.4085 73.1527 11.7041L73.3842 12.0303C73.6905 11.8129 74.2822 11.6824 75.2131 11.6824V11.2824ZM78.146 11.2824H75.2131V11.6824H78.146V11.2824ZM78.346 19.8183V11.4824H77.946V19.8183H78.346ZM77.7198 21.328C78.1548 21.0191 78.346 20.4936 78.346 19.8183H77.946C77.946 20.4255 77.7758 20.7977 77.4883 21.0018L77.7198 21.328ZM75.6275 21.7176C76.1129 21.7176 76.5293 21.6878 76.8741 21.6263C77.2168 21.5651 77.5011 21.4705 77.7131 21.3325L77.4949 20.9973C77.3457 21.0944 77.1199 21.1761 76.8038 21.2325C76.4897 21.2885 76.0985 21.3176 75.6275 21.3176V21.7176ZM29.5758 26.5191V21.6779H29.1758V26.5191H29.5758ZM23 26.7191H29.3758V26.3191H23V26.7191ZM22.8 6.48092V26.5191H23.2V6.48092H22.8ZM32.0856 6.28092H23V6.68092H32.0856V6.28092ZM36.5678 7.06837C35.4062 6.53939 33.9086 6.28092 32.0856 6.28092V6.68092C33.8755 6.68092 35.3107 6.93543 36.402 7.4324L36.5678 7.06837ZM39.1207 9.53814C38.5896 8.40299 37.7348 7.57768 36.5649 7.06708L36.4049 7.43369C37.4877 7.90629 38.2695 8.66266 38.7584 9.70766L39.1207 9.53814ZM39.9366 13.887C39.9366 12.1165 39.6686 10.662 39.1194 9.53527L38.7598 9.71053C39.2732 10.7639 39.5366 12.1522 39.5366 13.887H39.9366ZM38.131 19.921C39.3474 18.5865 39.9366 16.5618 39.9366 13.887H39.5366C39.5366 16.513 38.9568 18.4212 37.8354 19.6515L38.131 19.921ZM32.5638 21.8779C35.0395 21.8779 36.9095 21.2389 38.1299 19.9222L37.8365 19.6503C36.7192 20.8558 34.9761 21.4779 32.5638 21.4779V21.8779ZM29.3758 21.8779H32.5638V21.4779H29.3758V21.8779ZM31.7986 16.829H29.3758V17.229H31.7986V16.829ZM32.6052 16.608C32.4947 16.733 32.2525 16.829 31.7986 16.829V17.229C32.28 17.229 32.6753 17.1326 32.9049 16.8729L32.6052 16.608ZM32.8419 15.6824C32.8419 16.1845 32.7455 16.4664 32.6132 16.5994L32.8968 16.8815C33.1471 16.6298 33.2419 16.2063 33.2419 15.6824H32.8419ZM32.8419 13.1176V15.6824H33.2419V13.1176H32.8419ZM32.6132 12.2006C32.7455 12.3336 32.8419 12.6155 32.8419 13.1176H33.2419C33.2419 12.5937 33.1471 12.1702 32.8968 11.9185L32.6132 12.2006ZM31.7986 11.971C32.2525 11.971 32.4947 12.067 32.6052 12.192L32.9049 11.9271C32.6753 11.6674 32.28 11.571 31.7986 11.571V11.971ZM29.3758 11.971H31.7986V11.571H29.3758V11.971ZM29.5758 17.029V11.771H29.1758V17.029H29.5758ZM50.7705 26.5191V20.716H50.3705V26.5191H50.7705ZM44.1947 26.7191H50.5705V26.3191H44.1947V26.7191ZM43.9947 6.48092V26.5191H44.3947V6.48092H43.9947ZM53.4396 6.28092H44.1947V6.68092H53.4396V6.28092ZM57.9218 7.06837C56.7603 6.53939 55.2626 6.28092 53.4396 6.28092V6.68092C55.2296 6.68092 56.6648 6.93543 57.7561 7.4324L57.9218 7.06837ZM60.4748 9.53814C59.9436 8.40299 59.0889 7.57768 57.9189 7.06708L57.7589 7.43369C58.8418 7.90629 59.6235 8.66266 60.1125 9.70766L60.4748 9.53814ZM61.2906 13.887C61.2906 12.1165 61.0226 10.662 60.4734 9.53527L60.1139 9.71053C60.6273 10.7639 60.8906 12.1522 60.8906 13.887H61.2906ZM59.4751 19.1938C60.6986 18.0304 61.2906 16.247 61.2906 13.887H60.8906C60.8906 16.1866 60.3138 17.8444 59.1995 18.9039L59.4751 19.1938ZM58.7428 19.7756C59.0101 19.6015 59.2548 19.4071 59.4764 19.1925L59.1981 18.9052C58.9956 19.1013 58.7712 19.2797 58.5245 19.4404L58.7428 19.7756ZM62.0685 26.4339L58.8146 19.5228L58.4527 19.6932L61.7067 26.6043L62.0685 26.4339ZM54.9698 26.7191H61.8876V26.3191H54.9698V26.7191ZM52.0748 20.8008L54.7887 26.6038L55.151 26.4344L52.4372 20.6313L52.0748 20.8008ZM50.5705 20.916H52.256V20.516H50.5705V20.916ZM53.1527 15.8672H50.5705V16.2672H53.1527V15.8672ZM53.9592 15.6462C53.8487 15.7712 53.6065 15.8672 53.1527 15.8672V16.2672C53.634 16.2672 54.0294 16.1708 54.2589 15.9111L53.9592 15.6462ZM54.196 14.7206C54.196 15.2227 54.0996 15.5046 53.9673 15.6376L54.2509 15.9196C54.5012 15.668 54.596 15.2445 54.596 14.7206H54.196ZM54.196 13.1176V14.7206H54.596V13.1176H54.196ZM53.9673 12.2006C54.0996 12.3336 54.196 12.6155 54.196 13.1176H54.596C54.596 12.5937 54.5012 12.1702 54.2509 11.9185L53.9673 12.2006ZM53.1527 11.971C53.6065 11.971 53.8487 12.067 53.9592 12.192L54.2589 11.9271C54.0294 11.6674 53.634 11.571 53.1527 11.571V11.971ZM50.5705 11.971H53.1527V11.571H50.5705V11.971ZM50.7705 16.0672V11.771H50.3705V16.0672H50.7705ZM29.2777 28.8H23V29.2H29.2777V28.8ZM31.14 43.5261L29.4764 28.9773L29.079 29.0227L30.7426 43.5715L31.14 43.5261ZM31.2238 43.3488H30.9413V43.7488H31.2238V43.3488ZM33.1918 28.9706L31.026 43.5194L31.4216 43.5782L33.5874 29.0294L33.1918 28.9706ZM35.5868 28.8H33.3896V29.2H35.5868V28.8ZM38.0037 28.8H35.5868V29.2H38.0037V28.8ZM40.2009 28.8H38.0037V29.2H40.2009V28.8ZM42.5646 43.5194L40.3987 28.9706L40.0031 29.0294L42.1689 43.5782L42.5646 43.5194ZM42.6492 43.3488H42.3667V43.7488H42.6492V43.3488ZM44.1141 28.9773L42.4505 43.5261L42.8479 43.5715L44.5115 29.0227L44.1141 28.9773ZM50.5905 28.8H44.3128V29.2H50.5905V28.8ZM48.1838 50.0246L50.789 29.0246L50.3921 28.9754L47.7868 49.9754L48.1838 50.0246ZM38.6315 50.2H47.9853V49.8H38.6315V50.2ZM36.5973 37.3637L38.4336 50.0287L38.8294 49.9713L36.9932 37.3064L36.5973 37.3637ZM35.157 50.0287L36.9932 37.3637L36.5973 37.3064L34.7611 49.9713L35.157 50.0287ZM25.6053 50.2H34.959V49.8H25.6053V50.2ZM22.8015 29.0246L25.4068 50.0246L25.8037 49.9754L23.1985 28.9754L22.8015 29.0246ZM59.0994 44.456V41.936H58.6994V44.456H59.0994ZM66.2757 44.256H58.8994V44.656H66.2757V44.256ZM66.4757 50V44.456H66.0757V50H66.4757ZM52.6217 50.2H66.2757V49.8H52.6217V50.2ZM52.4217 29V50H52.8217V29H52.4217ZM66.4327 28.8H52.6217V29.2H66.4327V28.8ZM65.846 34.572L66.6307 29.028L66.2347 28.972L65.4499 34.516L65.846 34.572ZM58.8994 34.744H65.648V34.344H58.8994V34.744ZM59.0994 37.064V34.544H58.6994V37.064H59.0994ZM65.1771 36.864H58.8994V37.264H65.1771V36.864ZM65.3771 41.936V37.064H64.9771V41.936H65.3771ZM58.8994 42.136H65.1771V41.736H58.8994V42.136ZM68.6152 29.2H77.5295V28.8H68.6152V29.2ZM68.8152 50V29H68.4152V50H68.8152ZM78.6281 49.8H68.6152V50.2H78.6281V49.8ZM83.2005 48.3413C82.1615 49.3038 80.6479 49.8 78.6281 49.8V50.2C80.7098 50.2 82.3351 49.6882 83.4723 48.6347L83.2005 48.3413ZM84.8 44.0864C84.8 45.9501 84.2586 47.3582 83.2003 48.3415L83.4725 48.6345C84.6323 47.557 85.2 46.0307 85.2 44.0864H84.8ZM83.9255 41.2437C84.5083 42.0827 84.8 43.0282 84.8 44.0864H85.2C85.2 42.9494 84.8849 41.9237 84.254 41.0155L83.9255 41.2437ZM81.7814 39.6437C82.6255 39.8538 83.34 40.3793 83.9241 41.2418L84.2553 41.0174C83.6257 40.0879 82.8336 39.4934 81.8781 39.2555L81.7814 39.6437ZM81.6298 39.248V39.4496H82.0298V39.248H81.6298ZM83.2485 37.25C82.8638 38.0952 82.3544 38.6986 81.7266 39.0767L81.9329 39.4193C82.6444 38.991 83.2021 38.3176 83.6126 37.4156L83.2485 37.25ZM83.827 34.544C83.827 35.5018 83.634 36.4031 83.2485 37.25L83.6126 37.4156C84.0224 36.5153 84.227 35.5574 84.227 34.544H83.827ZM82.3592 30.4626C83.3229 31.2837 83.827 32.6269 83.827 34.544H84.227C84.227 32.5635 83.7057 31.0843 82.6186 30.1582L82.3592 30.4626ZM77.5295 29.2C79.8152 29.2 81.4081 29.6355 82.3577 30.4613L82.6202 30.1595C81.5608 29.2381 79.8475 28.8 77.5295 28.8V29.2ZM77.1529 44.928H74.8929V45.328H77.1529V44.928ZM78.0612 44.6369C77.9304 44.808 77.6557 44.928 77.1529 44.928V45.328C77.6963 45.328 78.133 45.2016 78.379 44.8799L78.0612 44.6369ZM78.334 43.4144C78.334 44.0298 78.2292 44.421 78.0623 44.6355L78.3779 44.8813C78.6294 44.5582 78.734 44.0534 78.734 43.4144H78.334ZM78.0926 42.1919C78.2375 42.3815 78.334 42.7693 78.334 43.4144H78.734C78.734 42.7603 78.6421 42.2521 78.4104 41.9489L78.0926 42.1919ZM77.1842 41.9008C77.6871 41.9008 77.9618 42.0208 78.0926 42.1919L78.4104 41.9489C78.1644 41.6272 77.7277 41.5008 77.1842 41.5008V41.9008ZM74.8929 41.9008H77.1842V41.5008H74.8929V41.9008ZM75.0929 45.128V41.7008H74.6929V45.128H75.0929ZM76.4309 36.7968H74.8929V37.1968H76.4309V36.7968ZM77.3129 36.5666C77.2077 36.6933 76.9475 36.7968 76.4309 36.7968V37.1968C76.9606 37.1968 77.391 37.0987 77.6206 36.8222L77.3129 36.5666ZM77.5492 35.4176C77.5492 35.7224 77.5262 35.9701 77.4833 36.164C77.4401 36.3595 77.3794 36.4875 77.3137 36.5657L77.6198 36.8231C77.7424 36.6773 77.823 36.4805 77.8739 36.2504C77.9252 36.0187 77.9492 35.74 77.9492 35.4176H77.5492ZM77.3443 34.3022C77.3977 34.3665 77.4515 34.4834 77.4904 34.676C77.5287 34.8655 77.5492 35.1116 77.5492 35.4176H77.9492C77.9492 35.0964 77.9279 34.8217 77.8825 34.5968C77.8377 34.375 77.766 34.1839 77.652 34.0466L77.3443 34.3022ZM76.4309 34.072C76.6923 34.072 76.8973 34.0964 77.0513 34.14C77.2056 34.1838 77.295 34.2428 77.3443 34.3022L77.652 34.0466C77.5339 33.9044 77.3617 33.8122 77.1603 33.7552C76.9585 33.698 76.7136 33.672 76.4309 33.672V34.072ZM74.8929 34.072H76.4309V33.672H74.8929V34.072ZM75.0929 36.9968V33.872H74.6929V36.9968H75.0929Z" fill="white" mask="url(#path-2-outside-1_950_31)"/>
<path fill-rule="evenodd" clip-rule="evenodd" d="M26 26.9621C22.0613 29.22 18.5474 31.4525 15.5658 33.5832C11.7472 36.3121 8.77914 38.89 6.91177 41.1565C5.97856 42.2892 5.3023 43.3654 4.94052 44.3624C4.57762 45.3626 4.51873 46.3216 4.8843 47.1721C5.24987 48.0227 5.98622 48.6399 6.96164 49.0648C7.93403 49.4884 9.18028 49.7384 10.6443 49.8407C13.5738 50.0454 17.4868 49.6658 22.0945 48.773C31.3182 46.9858 43.4343 43.1203 56.2644 37.6058C63.6852 34.4163 70.5393 31.0214 76.4778 27.6698C77.2172 28.5299 78.4558 28.8519 79.553 28.3804C80.9061 27.7988 81.5315 26.2305 80.95 24.8774C80.3684 23.5243 78.8001 22.8989 77.447 23.4805C76.1538 24.0363 75.5253 25.4934 75.9799 26.8026C70.0773 30.1336 63.2579 33.5115 55.8696 36.6871C43.0849 42.182 31.0389 46.0213 21.9043 47.7913C17.3329 48.677 13.5177 49.0391 10.714 48.8431C9.31143 48.7451 8.1898 48.5091 7.36103 48.148C6.5353 47.7883 6.0372 47.3221 5.80303 46.7773C5.56887 46.2325 5.57334 45.5502 5.88056 44.7035C6.1889 43.8537 6.7895 42.8775 7.68356 41.7924C9.47073 39.6232 12.3588 37.1042 16.1472 34.3968C18.974 32.3767 22.2894 30.2607 26 28.1159V26.9621ZM91 5.18629C91.6139 5.18284 92.1921 5.19987 92.7327 5.23765C94.1353 5.33568 95.2569 5.57167 96.0857 5.93273C96.9114 6.29246 97.4095 6.75869 97.6437 7.30351C97.8837 7.86209 97.873 8.56563 97.5421 9.44222C97.2102 10.3214 96.5708 11.332 95.6244 12.4548C93.733 14.699 90.6895 17.3054 86.7125 20.0998C86.4866 20.2586 86.4321 20.5704 86.5909 20.7964C86.7497 21.0223 87.0615 21.0768 87.2875 20.918C91.2944 18.1025 94.4174 15.4386 96.3891 13.0993C97.3743 11.9303 98.0905 10.821 98.4776 9.79537C98.8658 8.76716 98.9374 7.78107 98.5624 6.90863C98.1968 6.05809 97.4605 5.44089 96.4851 5.01595C95.5127 4.59233 94.2664 4.3424 92.8024 4.24009C92.2375 4.20061 91.636 4.18285 91 4.18632V5.18629Z" fill="url(#paint2_linear_950_31)"/>
<defs>
<filter id="filter0_d_950_31" x="0.637543" y="0.185897" width="102.172" height="53.709" filterUnits="userSpaceOnUse" color-interpolation-filters="sRGB">
<feFlood flood-opacity="0" result="BackgroundImageFix"/>
<feColorMatrix in="SourceAlpha" type="matrix" values="0 0 0 0 0 0 0 0 0 0 0 0 0 0 0 0 0 0 127 0" result="hardAlpha"/>
<feOffset/>
<feGaussianBlur stdDeviation="2"/>
<feComposite in2="hardAlpha" operator="out"/>
<feColorMatrix type="matrix" values="0 0 0 0 1 0 0 0 0 1 0 0 0 0 1 0 0 0 1 0"/>
<feBlend mode="normal" in2="BackgroundImageFix" result="effect1_dropShadow_950_31"/>
<feBlend mode="normal" in="SourceGraphic" in2="effect1_dropShadow_950_31" result="shape"/>
</filter>
<linearGradient id="paint0_linear_950_31" x1="99" y1="6.5" x2="7.00001" y2="46.5" gradientUnits="userSpaceOnUse">
<stop stop-color="#E4E4E4"/>
<stop offset="1" stop-color="#2A357B"/>
</linearGradient>
<linearGradient id="paint1_linear_950_31" x1="23" y1="7" x2="101" y2="58" gradientUnits="userSpaceOnUse">
<stop stop-color="#151315"/>
<stop offset="1" stop-color="#303F98"/>
</linearGradient>
<linearGradient id="paint2_linear_950_31" x1="97.5" y1="4" x2="7.5" y2="46.5" gradientUnits="userSpaceOnUse">
<stop stop-color="#E4E4E4"/>
<stop offset="1" stop-color="#2A357B"/>
</linearGradient>
</defs>
</svg>
